<?xml version="1.0" encoding="UTF-8"?>
<svg width="179px" height="100px" viewBox="0 0 179 100" version="1.1" xmlns="http://www.w3.org/2000/svg" xmlns:xlink="http://www.w3.org/1999/xlink">
    <!-- Generator: Sketch 51.3 (57544) - http://www.bohemiancoding.com/sketch -->
    <title>Logo</title>
    <desc>Created with Sketch.</desc>
    <defs>
        <polygon id="path-1" points="0 0.0469343066 177.913723 0.0469343066 177.913723 99.6350365 0 99.6350365"></polygon>
    </defs>
    <g id="Page-1" stroke="none" stroke-width="1" fill="none" fill-rule="evenodd">
        <g id="Desktop-1440-+-Copy-2" transform="translate(-831.000000, -50.000000)">
            <g id="Top-Navigtio" transform="translate(0.000000, -61.000000)">
                <g id="Logo" transform="translate(831.000000, 111.000000)">
                    <ellipse id="Oval" fill="#FFFFFF" cx="89.1666667" cy="50" rx="89.1666667" ry="50"></ellipse>
                    <path d="M47.9329197,37.7487956 C47.9329197,39.175438 47.8880292,40.0469708 47.7548175,40.6436861 C47.400073,42.3462409 46.2015328,43.1721533 44.1143066,43.1721533 C41.8920438,43.1721533 40.469781,42.1166788 40.2044526,40.2801825 C40.1150365,39.6805474 40.070146,38.7604745 40.1150365,36.4604745 L34.7420438,36.4604745 L34.7420438,37.6101095 C34.7420438,42.2539051 35.4088321,44.3236131 37.5394891,46.1612044 C39.1394891,47.5382117 41.4467883,48.235292 44.2442336,48.235292 C47.9329197,48.235292 50.7310949,46.9871168 52.3292701,44.6425912 C53.4380292,43.0827372 53.7938686,41.4725182 53.7938686,38.0265328 L53.7938686,19.7539051 L47.9329197,19.7539051 L47.9329197,37.7487956 Z" id="Fill-1" fill="#AB142D"></path>
                    <path d="M149.265182,80.740365 C133.24365,89.7089781 111.825036,94.6476642 88.9567883,94.6476642 C66.0889051,94.6476642 44.6706569,89.7089781 28.6483942,80.740365 C13.5965693,72.3151825 5.30788321,61.4549635 5.30788321,50.159708 C5.30788321,38.8644526 13.5965693,28.0031387 28.6483942,19.5783212 C44.6706569,10.6093431 66.0889051,5.67065693 88.9567883,5.67065693 C111.825036,5.67065693 133.24365,10.6093431 149.265182,19.5783212 C164.317372,28.0031387 172.606058,38.8644526 172.606058,50.159708 C172.606058,61.4549635 164.317372,72.3151825 149.265182,80.740365 M88.9567883,0.365182482 C39.8272263,0.365182482 -0.000145985402,22.6586131 -0.000145985402,50.159708 C-0.000145985402,77.660073 39.8272263,99.9535036 88.9567883,99.9535036 C138.085985,99.9535036 177.913723,77.660073 177.913723,50.159708 C177.913723,22.6586131 138.085985,0.365182482 88.9567883,0.365182482" id="Fill-11" fill="#AB142D"></path>
                    <polygon id="Fill-3" fill="#AB142D" points="110.754416 19.7374453 106.993102 36.0429197 106.174124 40.579781 105.352226 36.1352555 102.135438 19.7374453 99.0244891 19.7374453 99.0233942 19.7374453 95.9124453 19.7374453 92.6956569 36.1352555 91.8737591 40.579781 91.0544161 36.0429197 87.2938321 19.7374453 80.9737591 19.7374453 89.0507664 48.209708 94.5799635 48.209708 98.0186496 31.5589781 99.0233942 26.0535036 99.0233942 26.0542336 99.0233942 26.0571533 99.0233942 26.0553285 99.0244891 26.0571533 99.0244891 26.0542336 99.0244891 26.0535036 100.029234 31.5589781 103.469015 48.209708 108.997482 48.209708 117.073759 19.7374453"></polygon>
                    <path d="M66.3562774,37.4508394 L70.0522628,26.2468248 L70.0522628,26.2479197 L70.0529927,26.2468248 L70.0529927,26.2479197 L70.0529927,26.2468248 L73.7493431,37.4508394 L66.3562774,37.4508394 Z M75.3683212,42.3577737 L77.299708,48.2095985 L83.5263504,48.2095985 L73.3581022,19.7373358 L66.7486131,19.7373358 L56.58,48.2095985 L62.8062774,48.2095985 L64.7372993,42.3577737 L75.3683212,42.3577737 Z" id="Fill-5" fill="#AB142D"></path>
                    <path d="M124.321168,37.4508394 L128.017883,26.2468248 L128.017883,26.2479197 L128.017883,26.2468248 L128.017883,26.2479197 L128.017883,26.2468248 L131.714964,37.4508394 L124.321168,37.4508394 Z M133.332847,42.3577737 L135.265328,48.2095985 L141.491241,48.2095985 L131.322628,19.7373358 L124.713139,19.7373358 L114.544891,48.2095985 L120.770803,48.2095985 L122.701825,42.3577737 L133.332847,42.3577737 Z" id="Fill-7" fill="#AB142D"></path>
                    <path d="M88.9572993,83.5891241 C82.1226277,83.5891241 76.5638686,78.0314599 76.5638686,71.2011679 C76.5638686,64.3705109 82.1226277,58.8128467 88.9572993,58.8128467 C95.7908759,58.8128467 101.35073,64.3705109 101.35073,71.2011679 C101.35073,78.0314599 95.7908759,83.5891241 88.9572993,83.5891241 M88.9572993,55.0216058 C80.0310219,55.0216058 72.769708,62.279635 72.769708,71.2011679 C72.769708,80.1230657 80.0310219,87.380365 88.9572993,87.380365 C97.8824818,87.380365 105.143796,80.1230657 105.143796,71.2011679 C105.143796,62.279635 97.8824818,55.0216058 88.9572993,55.0216058 M88.9572993,77.0051825 C85.7558394,77.0051825 83.150365,74.4008029 83.150365,71.2011679 C83.150365,68.0008029 85.7558394,65.3964234 88.9572993,65.3964234 C92.1587591,65.3964234 94.7631387,68.0008029 94.7631387,71.2011679 C94.7631387,74.4008029 92.1587591,77.0051825 88.9572993,77.0051825 M88.9572993,61.6033577 C83.6624088,61.6033577 79.3565693,65.909562 79.3565693,71.2011679 C79.3565693,76.4927737 83.6624088,80.7986131 88.9572993,80.7986131 C94.2510949,80.7986131 98.5580292,76.4927737 98.5580292,71.2011679 C98.5580292,65.909562 94.2510949,61.6033577 88.9572993,61.6033577" id="Fill-9" fill="#AB142D"></path>
                    <g id="Group-13" transform="translate(0.000000, 0.318248)">
                        <mask id="mask-2" fill="white">
                            <use xlink:href="#path-1"></use>
                        </mask>
                        <g id="Clip-12"></g>
                        <path d="M149.265182,80.4221168 C133.24365,89.3907299 111.825036,94.3294161 88.9567883,94.3294161 C66.0889051,94.3294161 44.6706569,89.3907299 28.6483942,80.4221168 C13.5965693,71.9969343 5.30788321,61.1367153 5.30788321,49.8414599 C5.30788321,38.5462044 13.5965693,27.6848905 28.6483942,19.260073 C44.6706569,10.2910949 66.0889051,5.35240876 88.9567883,5.35240876 C111.825036,5.35240876 133.24365,10.2910949 149.265182,19.260073 C164.317372,27.6848905 172.606058,38.5462044 172.606058,49.8414599 C172.606058,61.1367153 164.317372,71.9969343 149.265182,80.4221168 M88.9567883,0.0469343066 C39.8272263,0.0469343066 -0.000145985401,22.340365 -0.000145985401,49.8414599 C-0.000145985401,77.3418248 39.8272263,99.6352555 88.9567883,99.6352555 C138.085985,99.6352555 177.913723,77.3418248 177.913723,49.8414599 C177.913723,22.340365 138.085985,0.0469343066 88.9567883,0.0469343066" id="Fill-11" fill="#AB142D" mask="url(#mask-2)"></path>
                    </g>
                    <path d="M71.7191971,63.2488321 C71.8487591,62.9692701 71.9852555,62.6933577 72.1279562,62.4210949 L72.129781,62.4185401 C72.2721168,62.1451825 72.4221168,61.8765693 72.5775912,61.6116058 L53.3013139,63.9043066 L24.4440146,67.3280292 C22.0177372,67.5820438 23.4513139,69.0386131 24.6954745,70.1145255 C26.7221168,71.869635 29.3148175,72.8783942 31.9827007,72.3721898 C43.0688321,70.2721898 68.0221168,65.5433577 71.019562,64.9747445 L71.0206569,64.9747445 C71.2254015,64.3864234 71.4586131,63.8108759 71.7191971,63.249927 L71.7191971,63.2488321" id="Fill-14" fill="#AB142D"></path>
                    <path d="M75.1731387,58.1504015 C75.3494161,57.9668248 75.529708,57.7868978 75.7132847,57.6106204 C75.7884672,57.5390876 75.8632847,57.4686496 75.9384672,57.3982117 C76.1329927,57.2175547 76.3322628,57.0420073 76.5344526,56.8693796 C76.5975912,56.815365 76.6585401,56.7613504 76.7216788,56.7084307 C76.9877372,56.4872628 77.2581752,56.2719343 77.5362774,56.065365 C77.5373723,56.065365 77.5373723,56.065365 77.5373723,56.0642701 L15.0337226,56.0642701 C14.9516058,56.0635401 14.8709489,56.0595255 14.7990511,56.0642701 C12.5508759,56.1876277 14.5027007,59.3219343 15.3227737,60.3434672 C16.7972263,62.194927 19.3359124,63.2401825 21.7264234,63.0620803 C31.0483212,62.3657299 52.8012409,60.7365328 52.8012409,60.7365328 L74.2808029,59.135438 L74.2808029,59.134708 C74.5030657,58.8704745 74.7333577,58.6139051 74.9683942,58.3617153 C75.0362774,58.2901825 75.1045255,58.2208394 75.1731387,58.1504015" id="Fill-16" fill="#AB142D"></path>
                    <path d="M70.959854,77.3277372 C70.8664234,77.0529197 70.779562,76.7748175 70.6985401,76.4937956 C70.6956204,76.4843066 70.6930657,76.4733577 70.690146,76.4642336 C70.609854,76.1846715 70.5354015,75.9025547 70.4678832,75.6178832 C70.4653285,75.609854 70.4642336,75.6010949 70.4616788,75.5916058 C70.3930657,75.3036496 70.3317518,75.0131387 70.2759124,74.719708 L52.8974453,81.6784672 C50.7974453,82.6635036 53.9624088,83.5587591 55.0510949,83.8594891 C57.6821168,84.5715328 60.1131387,84.8627737 62.6507299,83.4116788 L65.1,81.8905109 L71.2689781,78.1759124 C71.1616788,77.9025547 71.0613139,77.6255474 70.9664234,77.3470803 C70.9635036,77.3405109 70.9616788,77.3343066 70.959854,77.3277372" id="Fill-18" fill="#AB142D"></path>
                    <path d="M78.0791241,86.7455109 C78.0050365,86.6940511 77.9327737,86.6422263 77.8605109,86.5900365 C77.6732847,86.454635 77.4893431,86.3166788 77.3075912,86.175438 C77.3075912,86.175438 77.3075912,86.1743431 77.3064964,86.1743431 C77.209781,86.0984307 77.1119708,86.0232482 77.0167153,85.9469708 C77.0167153,85.9458759 77.0167153,85.9458759 77.0159854,85.9458759 C76.840438,85.8031752 76.6685401,85.6560949 76.4966423,85.5068248 C76.4564964,85.4717883 76.4141606,85.4367518 76.3740146,85.4002555 C76.2152555,85.2604745 76.059781,85.1159489 75.9061314,84.9699635 C75.8575912,84.9243431 75.8090511,84.8794526 75.7616058,84.8327372 C75.6116058,84.6874818 75.4634307,84.5393066 75.3181752,84.3896715 C75.2725547,84.3429562 75.2276642,84.2944161 75.1827737,84.2480657 C75.0349635,84.0925912 74.890438,83.9356569 74.7477372,83.775438 C74.7159854,83.7393066 74.6838686,83.7013504 74.6517518,83.6641241 C73.9762044,82.8907664 73.3619708,82.0641241 72.8170803,81.1885766 L68.320365,84.5779927 C66.6754745,85.605 68.7517518,86.4768978 70.2043066,86.6995255 C72.809781,87.1009854 77.3732847,87.2462409 78.8918978,87.285292 C78.6156204,87.1126642 78.3451825,86.9327372 78.0791241,86.7455109" id="Fill-20" fill="#AB142D"></path>
                    <path d="M69.9647445,71.2138686 C69.9647445,70.9270073 69.9738686,70.6419708 69.9870073,70.3572993 C69.9913869,70.2532847 69.9975912,70.1492701 70.0041606,70.0459854 C70.0151095,69.8686131 70.0286131,69.6923358 70.0443066,69.5178832 C70.0552555,69.3937956 70.0654745,69.270073 70.0789781,69.1467153 C70.1045255,68.9065693 70.1359124,68.6664234 70.1705839,68.4284672 L70.1705839,68.4273723 C66.8318978,69.2091241 48.0391971,73.6043796 39.5318978,75.5945255 C35.0559854,76.8076642 39.4815328,78.6868613 41.5859124,79.4120438 C43.4753285,80.0113139 45.46,80.0536496 47.2950365,79.4120438 L69.9713139,71.4751825 C69.970219,71.3875912 69.9647445,71.3014599 69.9647445,71.2138686" id="Fill-22" fill="#AB142D"></path>
                    <path d="M106.195219,63.2488321 C106.065292,62.9692701 105.929161,62.6933577 105.78646,62.4210949 L105.784635,62.4185401 C105.641934,62.1451825 105.491934,61.8765693 105.33646,61.6116058 L124.613102,63.9043066 L153.470036,67.3280292 C155.896314,67.5820438 154.462007,69.0386131 153.218577,70.1145255 C151.191934,71.869635 148.599234,72.8783942 145.931715,72.3721898 C134.845584,70.2721898 109.891204,65.5433577 106.893394,64.9747445 C106.689015,64.3864234 106.455438,63.8108759 106.195219,63.249927 L106.195219,63.2488321 Z" id="Fill-24" fill="#AB142D"></path>
                    <path d="M102.740912,58.1504015 C102.564635,57.9668248 102.384343,57.7868978 102.200036,57.6106204 C102.125584,57.5390876 102.050401,57.4686496 101.975584,57.3982117 C101.779964,57.2175547 101.581788,57.0420073 101.379964,56.8693796 C101.316825,56.815365 101.255511,56.7613504 101.192372,56.7084307 C100.925949,56.4872628 100.654781,56.2719343 100.376679,56.065365 L100.376679,56.0642701 L162.880693,56.0642701 C162.962445,56.0635401 163.042007,56.0595255 163.115365,56.0642701 C165.363175,56.1876277 163.410985,59.3219343 162.591277,60.3434672 C161.11646,62.194927 158.578139,63.2401825 156.187263,63.0620803 C146.865365,62.3657299 125.11281,60.7365328 125.11281,60.7365328 L103.632883,59.135438 L103.632883,59.134708 C103.410985,58.8704745 103.180693,58.6139051 102.945657,58.3617153 C102.878139,58.2901825 102.808796,58.2208394 102.740912,58.1504015" id="Fill-26" fill="#AB142D"></path>
                    <path d="M106.95438,77.3277372 C107.047445,77.0529197 107.134307,76.7748175 107.215693,76.4937956 C107.218613,76.4843066 107.221168,76.4733577 107.223723,76.4642336 C107.30438,76.1846715 107.378467,75.9025547 107.44635,75.6178832 C107.44854,75.609854 107.449635,75.6010949 107.452555,75.5916058 C107.520073,75.3036496 107.582482,75.0131387 107.637956,74.719708 L125.016788,81.6784672 C127.116423,82.6635036 123.95146,83.5587591 122.862044,83.8594891 C120.231752,84.5715328 117.8,84.8627737 115.263139,83.4116788 L112.814234,81.8905109 L106.645255,78.1759124 C106.75219,77.9025547 106.85292,77.6255474 106.94781,77.3470803 C106.949635,77.3405109 106.95219,77.3343066 106.95438,77.3277372" id="Fill-28" fill="#AB142D"></path>
                    <path d="M99.8351095,86.7455109 C99.9091971,86.6940511 99.9810949,86.6422263 100.053358,86.5900365 C100.240949,86.454635 100.424526,86.3166788 100.606642,86.175438 L100.606642,86.1743431 C100.704453,86.0984307 100.801898,86.0232482 100.897153,85.9469708 L100.897153,85.9458759 C101.073796,85.8031752 101.245328,85.6560949 101.416496,85.5068248 C101.457737,85.4717883 101.498978,85.4367518 101.539854,85.4002555 C101.698978,85.2604745 101.853358,85.1159489 102.008102,84.9699635 C102.056642,84.9243431 102.105182,84.8794526 102.152628,84.8327372 C102.302628,84.6874818 102.449343,84.5393066 102.595693,84.3896715 C102.640584,84.3429562 102.686204,84.2944161 102.731095,84.2480657 C102.87854,84.0925912 103.023431,83.9356569 103.166131,83.775438 C103.198248,83.7393066 103.22927,83.7013504 103.262482,83.6641241 C103.937664,82.8907664 104.552263,82.0641241 105.097153,81.1885766 L109.593869,84.5779927 C111.238394,85.605 109.162482,86.4768978 107.708832,86.6995255 C105.104453,87.1009854 100.540949,87.2462409 99.0223358,87.285292 C99.2982482,87.1126642 99.5679562,86.9327372 99.8351095,86.7455109" id="Fill-30" fill="#AB142D"></path>
                    <path d="M107.949124,71.2138686 C107.949124,70.9270073 107.940365,70.6419708 107.927226,70.3572993 C107.922847,70.2532847 107.916277,70.1492701 107.910073,70.0459854 C107.898759,69.8686131 107.885255,69.6923358 107.869562,69.5178832 C107.858613,69.3937956 107.848759,69.270073 107.835255,69.1467153 C107.808248,68.9065693 107.778321,68.6664234 107.74365,68.4284672 L107.74365,68.4273723 C111.081971,69.2091241 129.874672,73.6043796 138.382701,75.5945255 C142.857153,76.8076642 138.431606,78.6868613 136.327226,79.4120438 C134.43854,80.0113139 132.453139,80.0536496 130.618832,79.4120438 L107.942555,71.4751825 C107.94365,71.3875912 107.949124,71.3014599 107.949124,71.2138686" id="Fill-32" fill="#AB142D"></path>
                </g>
            </g>
        </g>
    </g>
</svg>